<?xml version="1.0" encoding="UTF-8"?>
<svg width="13px" height="12px" viewBox="0 0 13 12" version="1.1" xmlns="http://www.w3.org/2000/svg" xmlns:xlink="http://www.w3.org/1999/xlink">
    <!-- Generator: Sketch 50.2 (55047) - http://www.bohemiancoding.com/sketch -->
    <title>download copy 3</title>
    <desc>Created with Sketch.</desc>
    <defs></defs>
    <g id="Teaser" stroke="none" stroke-width="1" fill="none" fill-rule="evenodd">
        <g id="Teaser-Mobile-Portrait" transform="translate(-32.000000, -429.000000)" fill="#E30613" fill-rule="nonzero">
            <g id="download-copy-3" transform="translate(32.000000, 429.000000)">
                <path d="M12.6061441,5.85308924 C12.3995763,5.85308924 12.234322,6.01784897 12.234322,6.22379863 L12.234322,9.59588101 C12.234322,10.5130435 11.4851695,11.2572082 10.5680085,11.2572082 L2.40995763,11.2572082 C1.49004237,11.2572082 0.743644068,10.5102975 0.743644068,9.59588101 L0.743644068,6.16887872 C0.743644068,5.96292906 0.578389831,5.79816934 0.371822034,5.79816934 C0.165254237,5.79816934 0,5.96292906 0,6.16887872 L0,9.59588101 C0,10.9221968 1.08241525,11.998627 2.40995763,11.998627 L10.5680085,11.998627 C11.8983051,11.998627 12.9779661,10.9194508 12.9779661,9.59588101 L12.9779661,6.22379863 C12.9779661,6.02059497 12.8127119,5.85308924 12.6061441,5.85308924 Z" id="Shape"></path>
                <path d="M6.22733051,9.05491991 C6.29894068,9.12631579 6.39533898,9.16475973 6.48898305,9.16475973 C6.58262712,9.16475973 6.67902542,9.12906178 6.75063559,9.05491991 L9.11377119,6.69885584 C9.25974576,6.55331808 9.25974576,6.31990847 9.11377119,6.17437071 C8.96779661,6.02883295 8.73368644,6.02883295 8.58771186,6.17437071 L6.86080508,7.89885584 L6.86080508,0.377574371 C6.86080508,0.171624714 6.69555085,0.00686498856 6.48898305,0.00686498856 C6.28241525,0.00686498856 6.11716102,0.171624714 6.11716102,0.377574371 L6.11716102,7.89885584 L4.3875,6.17437071 C4.24152542,6.02883295 4.00741525,6.02883295 3.86144068,6.17437071 C3.7154661,6.31990847 3.7154661,6.55331808 3.86144068,6.69885584 L6.22733051,9.05491991 Z" id="Shape"></path>
            </g>
        </g>
    </g>
</svg>