<svg xmlns="http://www.w3.org/2000/svg" width="21" height="20" viewBox="0 0 21 20">
    <g fill="#626262" fill-rule="nonzero">
        <path d="M13.677 4.543H6.835c-1.092 0-1.981.884-1.981 1.971v6.812c0 1.087.889 1.971 1.98 1.971h6.843c1.092 0 1.981-.884 1.981-1.971V6.514a1.979 1.979 0 0 0-1.98-1.971zm-3.421 8.917c-1.961 0-3.557-1.588-3.557-3.54s1.596-3.54 3.557-3.54c1.961 0 3.557 1.588 3.557 3.54s-1.596 3.54-3.557 3.54zm3.671-6.348a.84.84 0 0 1-.842-.838.84.84 0 0 1 .842-.838.84.84 0 0 1 .842.838.84.84 0 0 1-.842.838z"/>
        <path d="M10.256 7.882A2.046 2.046 0 0 0 8.208 9.92c0 1.124.92 2.038 2.048 2.038 1.13 0 2.048-.914 2.048-2.038a2.045 2.045 0 0 0-2.048-2.038z"/>
        <path d="M.29 2.33v15.18a2.33 2.33 0 0 0 2.33 2.33h15.272a2.33 2.33 0 0 0 2.33-2.33V2.33A2.33 2.33 0 0 0 17.892 0H2.62A2.33 2.33 0 0 0 .29 2.33zm16.864 10.992a3.476 3.476 0 0 1-3.48 3.465H6.838c-1.92 0-3.48-1.554-3.48-3.465V6.518c0-1.91 1.56-3.465 3.48-3.465h6.836c1.92 0 3.48 1.554 3.48 3.465v6.804z"/>
    </g>
</svg>
