<svg xmlns="http://www.w3.org/2000/svg" width="21" height="20" viewBox="0 0 21 20">
    <path fill="#626262" fill-rule="nonzero" d="M18.22 0H2.948a2.33 2.33 0 0 0-2.33 2.33v15.18a2.33 2.33 0 0 0 2.33 2.33H18.22a2.33 2.33 0 0 0 2.33-2.33V2.33A2.33 2.33 0 0 0 18.22 0zm-1.955 7.242c-.1 4.563-2.99 7.737-7.375 7.936-1.794.099-3.089-.496-4.285-1.19 1.296.198 2.99-.298 3.887-1.092-1.296-.1-2.093-.794-2.492-1.885.399.1.798 0 1.096 0-1.195-.397-1.993-1.091-2.092-2.678.299.198.697.297 1.096.297-.897-.496-1.495-2.38-.797-3.57 1.295 1.388 2.89 2.578 5.48 2.777-.697-2.778 3.09-4.266 4.585-2.381.698-.1 1.196-.397 1.694-.595-.2.694-.598 1.091-1.096 1.488.498-.1.996-.199 1.395-.397-.1.496-.598.893-1.096 1.29z"/>
</svg>
