<?xml version="1.0" encoding="UTF-8"?>
<svg width="6px" height="9px" viewBox="0 0 6 9" version="1.1" xmlns="http://www.w3.org/2000/svg" xmlns:xlink="http://www.w3.org/1999/xlink">
    <!-- Generator: sketchtool 51.2 (57519) - http://www.bohemiancoding.com/sketch -->
    <title>C2C80157-3786-4C6E-82F4-E7B71BC6C2ED</title>
    <desc>Created with sketchtool.</desc>
    <defs></defs>
    <g id="Pages" stroke="none" stroke-width="1" fill="none" fill-rule="evenodd">
        <g id="Main-Desktop" transform="translate(-39.000000, -1565.000000)" fill="#626262">
            <g id="second-screen" transform="translate(0.000000, 800.000000)">
                <g id="left-menu">
                    <g id="number-of-page" transform="translate(40.000000, 750.000000)">
                        <path d="M2,20.3106928 L5.56035612,17.5290378 C5.81172501,17.3326469 6.17470605,17.3772153 6.37109695,17.6285842 C6.56748785,17.8799531 6.52291939,18.2429342 6.27155049,18.4393251 L2.39123188,21.4709622 C2.27544024,21.5614286 2.13596527,21.600765 2,21.5923104 C1.86403473,21.600765 1.72455976,21.5614286 1.60876812,21.4709622 L-2.27155049,18.4393251 C-2.52291939,18.2429342 -2.56748785,17.8799531 -2.37109695,17.6285842 C-2.17470605,17.3772153 -1.81172501,17.3326469 -1.56035612,17.5290378 L2,20.3106928 Z" id="-g-Combined-Shape" transform="translate(2.000000, 19.500000) scale(-1, 1) rotate(-90.000000) translate(-2.000000, -19.500000) "></path>
                    </g>
                </g>
            </g>
        </g>
    </g>
</svg>