<svg xmlns="http://www.w3.org/2000/svg" width="250" height="254" viewBox="0 0 250 254">
    <g fill="none" fill-rule="nonzero">
        <path fill="#C3EA21" d="M212.242 96.212C210.018 67.008 185.464 44 155.5 44s-54.519 23.008-56.742 52.212C76.751 104.024 61 124.915 61 149.464 61 180.688 86.478 206 117.906 206c14.41 0 27.568-5.325 37.594-14.098C165.526 200.675 178.683 206 193.094 206 224.523 206 250 180.688 250 149.464c0-24.55-15.75-45.44-37.758-53.252z"/>
        <path fill="#8ADB53" d="M212.441 96.212C210.23 67.008 185.805 44 156 44v147.902c9.973 8.773 23.06 14.098 37.395 14.098C224.657 206 250 180.688 250 149.464c0-24.55-15.667-45.44-37.559-53.252z"/>
        <path fill="#BA7400" d="M192 130.688l-7.02-13.234-19.938 10.392V106h-15.084v48.973l-19.938-10.392-7.02 13.234 26.958 14.051V254h15.084V144.739z"/>
        <path fill="#4FC16E" d="M56.5 186C22.585 186-3.687 156.373.425 122.762L10.464 40.69C13.305 17.46 33.06 0 56.5 0s43.195 17.461 46.036 40.69l10.04 82.072C116.686 156.373 90.415 186 56.5 186z"/>
        <path fill="#369151" d="M56 186V0c23.233 0 42.812 17.461 45.629 40.69l9.95 82.072C115.654 156.373 89.616 186 56 186z"/>
        <path fill="#804D00" d="M82.98 121.795l-19.938 10.31V94.428L90 80.49l-7.02-13.128-19.938 10.309V56H47.958v48.888L28.02 94.579 21 107.707l26.958 13.939V254h15.084V148.862L90 134.924z"/>
    </g>
</svg>
