<svg xmlns="http://www.w3.org/2000/svg" width="96" height="74" viewBox="0 0 96 74">
    <g fill="none" fill-rule="nonzero">
        <path fill="#7ED321" d="M50.651 28.1c4.026 8.279 7.934 16.252 11.842 24.256.088.213.147.426.294.822H54.97c-.058-.852-.088-1.735-.146-2.77h-3.38c-.088 1.157-.146 2.253-.235 3.379-.176 0-.323.03-.5.03-.087-1.126-.175-2.222-.264-3.439h-3.878V54.7c-8.14 1.37-15.456 5.69-23.742 6.025-6.847.274-12.753-1.795-17.572-6.938-1.058-1.126-1.586-2.1-.617-3.53.412-.579.617-1.31.94-2.1-.558-.092-.97-.153-1.674-.244 1.557-2.496 3.026-4.839 4.554-7.274-.44-.121-.793-.213-1.352-.365 1.47-2.343 2.88-4.595 4.35-6.908-.442-.122-.794-.244-1.323-.396 1.528-2.435 2.997-4.778 4.525-7.243-.47-.122-.823-.183-1.381-.304 1.528-2.435 3.026-4.84 4.701-7.457 1.47 2.283 2.821 4.352 4.261 6.574.91-2.13 1.792-4.108 2.645-6.087h.5c.646 1.309 1.263 2.618 1.997 4.109.794-1.278 1.528-2.343 2.175-3.47.264-.426 1.057-1.004-.06-1.46-.029-.03.03-.518.148-.73a472.985 472.985 0 0 1 3.35-5.387c1.351 2.13 2.556 4.017 3.79 5.965-.353.213-.617.365-.94.578.5.791.97 1.521 1.586 2.465.823-1.309 1.558-2.465 2.38-3.774-.528-.122-.91-.213-1.469-.335 1.587-2.526 3.115-4.99 4.76-7.608-.5-.122-.91-.213-1.469-.335 1.646-2.587 3.203-5.082 4.907-7.79 1.705 2.677 3.291 5.173 4.937 7.76-.53.122-.94.243-1.47.365 1.587 2.526 3.115 4.93 4.731 7.517-.47.152-.822.244-1.41.426.793 1.248 1.587 2.465 2.468 3.896.558-.944.97-1.644 1.47-2.496a47.25 47.25 0 0 1-1.205-.639c1.498-2.343 2.967-4.656 4.554-7.121 1.557 2.465 3.027 4.717 4.555 7.09-.382.153-.735.305-1.235.518 1.41 2.282 2.85 4.534 4.35 6.939-.441.182-.794.304-1.235.487.764 1.217 1.499 2.373 2.38 3.773 1.264-2.89 2.44-5.538 3.585-8.217.235 0 .44-.03.676-.03 1.116 2.556 2.204 5.143 3.408 7.882.735-1.37 1.41-2.587 2.234-4.047a676.643 676.643 0 0 1 4.407 6.938c-.44.153-.764.274-1.234.457 1.41 2.252 2.791 4.443 4.202 6.695-.44.152-.793.274-1.205.426 1.352 2.161 2.703 4.291 4.114 6.543-.47.153-.823.274-1.264.396 1.381 2.222 2.733 4.322 4.173 6.635-.44.121-.764.213-1.322.395a387.909 387.909 0 0 1 2.967 6.178c-.47.73-.822 1.278-1.44 2.252-1.38-.334-3.144-.547-4.76-1.187-4.437-1.734-8.785-3.652-13.31-5.569v-2.039h-1.646c-.088.517-.147 1.065-.235 1.613h-.176c-.088-.487-.147-.974-.265-1.552-.646.03-2.115-.06-2.115-.06s-.06.547-.118.973c-.881-.244-1.91-.274-2.586-.822-.617-.456-.852-1.46-1.234-2.221-4.29-8.309-8.639-16.587-12.87-24.925-.646-1.279-1.322-1.553-2.615-1.279-3.38.761-6.758 1.492-10.196 2.04-1.646.273-2.792.912-3.467 2.495-.118.304-.353.548-.764 1.156v-7.06c-1.675.365-3.174.67-4.79 1.004v4.322c-2.41.487-4.701.943-6.964 1.46-.558.122-1.205.427-1.498.853-5.113 7.304-10.167 14.669-15.221 22.003-.059.091-.088.213-.177.487 2.145 2.678 5.054 4.2 8.287 5.052 6.464 1.704 12.752.578 18.952-1.46.558-.183 1.058-.975 1.381-1.583 4.584-8.735 9.11-17.5 13.664-26.264.205-.274.352-.518.646-1.035zM78.89 44.11c-1.029-1.644-2.292-3.409-3.291-5.326-.794-1.491-1.675-1.948-3.32-1.491-2.998.821-6.054 1.37-9.256 2.039 1.704 3.56 3.29 6.908 4.995 10.469 1.557-3.196 2.968-6.087 4.496-9.191.44.609.764 1.035 1.057 1.522 2.968 4.625 5.995 9.19 8.815 13.877 1.47 2.465 3.938 2.74 6.142 3.683-1.47-2.587-2.91-5.144-4.584-7.517-1.94-2.74-3.409-5.54-2.88-9.04 0-.09-.088-.182-.294-.577-.587.517-1.175.974-1.88 1.552zm-32.322.913v4.382h3.878v-4.017c-1.293-.122-2.497-.243-3.878-.365zm8.198 4.504V45.63c-1.146-.09-2.175-.182-3.32-.273v4.169h3.32zm15.603.304v2.313h2.086v-2.008c-.705-.092-1.293-.183-2.086-.305zm4.348.518a18.626 18.626 0 0 0-1.704-.213s0 1.308.059 2.07h1.675c-.03-.67-.03-1.218-.03-1.857z"/>
        <path fill="#83E5FE" d="M.13 50.015c5.148 9.713 14.911 12.55 25.178 10.658 4.823-.888 9.527-2.521 14.26-3.84 12.397-3.495 24.853-4.411 37.339-.457 3.402 1.088 6.657 2.607 10.03 3.81 1.716.602 3.52 1.089 5.326 1.375 1.035.144 2.16-.257 3.195-.43-.03 1.347-.947 2.78-2.781 2.98-2.308.258-4.705.23-6.983-.143-6.538-1.031-12.988-2.521-19.557-3.352-7.692-1.003-15.207.344-22.545 2.75-7.248 2.35-14.615 3.754-22.337 3.496C10.81 66.49 2.585 60.272.04 50.531c-.03-.144.03-.258.089-.516z"/>
        <path fill="#83E5FE" d="M83.852 66.578c-5.51-.74-11.022-1.173-16.443-.124-5.094.987-10.099 2.56-15.104 3.98-6.464 1.82-12.988 3.239-19.75 2.9-5.451-.278-10.754-1.296-15.758-3.702 1.757.185 3.485.493 5.243.555 6.136.247 12.035-1.08 17.843-2.962C47.48 64.757 55.195 62.937 63.208 63c7.03.093 13.882 1.604 20.644 3.579z"/>
    </g>
</svg>
