<svg xmlns="http://www.w3.org/2000/svg" width="20" height="20" viewBox="0 0 20 20">
    <path fill="#626262" fill-rule="nonzero" d="M0 2.33v15.18a2.33 2.33 0 0 0 2.33 2.33h15.272a2.33 2.33 0 0 0 2.33-2.33V2.33A2.33 2.33 0 0 0 17.601 0H2.33A2.33 2.33 0 0 0 0 2.33zm14.942 8.646c.457.445.941.863 1.352 1.354.181.217.353.441.484.693.185.36.017.755-.306.777l-2.01-.001c-.519.042-.932-.166-1.28-.52-.278-.28-.537-.581-.804-.872a1.89 1.89 0 0 0-.361-.321c-.275-.177-.513-.124-.67.161-.16.29-.197.612-.212.935-.022.47-.164.594-.64.617-1.016.047-1.98-.107-2.876-.616-.79-.45-1.402-1.085-1.935-1.804-1.038-1.4-1.834-2.938-2.548-4.52-.161-.357-.043-.548.35-.555a55.283 55.283 0 0 1 1.97 0c.266.004.443.155.545.406a12.16 12.16 0 0 0 1.334 2.46c.146.205.294.408.504.552.233.16.41.107.52-.152.07-.165.1-.34.116-.517a7.697 7.697 0 0 0-.032-1.808c-.056-.376-.27-.619-.646-.69-.192-.036-.163-.107-.07-.216.162-.188.314-.306.617-.306h2.27c.36.07.44.23.488.589l.002 2.512c-.004.14.07.55.32.641.2.066.334-.094.454-.22.544-.575.932-1.255 1.279-1.958.153-.309.286-.63.415-.951.095-.238.243-.355.513-.35l2.186.002c.065 0 .131 0 .195.01.367.064.469.222.354.58-.178.562-.528 1.03-.869 1.5-.365.502-.754.987-1.117 1.492-.33.463-.305.696.108 1.096z"/>
</svg>
